<svg xmlns="http://www.w3.org/2000/svg" viewBox="0 0 24 24" fill="#229ED9">
  <path d="M12 0C5.37 0 0 5.37 0 12s5.37 12 12 12 12-5.37 12-12S18.63 0 12 0zm5.95 8.03c-.19 1.84-.88 6.3-1.25 8.36-.15.82-.45 1.09-.74 1.12-.63.06-1.11-.42-1.72-.82-.95-.64-1.49-1.04-2.42-1.66-.97-.71-.34-1.1.21-1.74.14-.17 2.62-2.4 2.67-2.6.01-.03.01-.14-.05-.2-.06-.06-.17-.04-.24-.02-.1.02-1.77 1.13-5 3.33-.47.32-.9.48-1.29.47-.42-.01-1.24-.24-1.84-.44-.74-.24-1.33-.37-1.28-.79.03-.22.33-.45.91-.68 3.57-1.55 5.95-2.57 7.15-3.08 3.4-1.44 4.11-1.69 4.57-1.7.1 0 .32.02.46.13.12.08.19.21.21.34.02.12.01.24 0 .35z"/>
</svg> 